{"asset":{"version":"2.0","generator":"THREE.GLTFExporter"},"scenes":[{"nodes":[0],"name":"AuxScene"}],"scene":0,"nodes":[{"mesh":0}],"bufferViews":[{"buffer":0,"byteOffset":0,"byteLength":119484,"target":34962,"byteStride":12},{"buffer":0,"byteOffset":119484,"byteLength":119484,"target":34962,"byteStride":12}],"buffers":[{"byteLength":238968,"uri":"data:application/octet-stream;base64,"}],"accessors":[{"bufferView":0,"componentType":5126,"count":9957,"max":[100.75189208984375,8.9959716796875,100.75189208984375],"min":[-100.76809692382812,0.19596900045871735,-100.76809692382812],"type":"VEC3"},{"bufferView":1,"componentType":5126,"count":9957,"max":[0.9998872876167297,1,0.9992256760597229],"min":[-0.997937798500061,0.0017283399356529117,-0.9992872476577759],"type":"VEC3"}],"materials":[{"pbrMetallicRoughness":{"baseColorFactor":[0.5019607843137255,0.5019607843137255,0.5019607843137255,1],"metallicFactor":0,"roughnessFactor":1}}],"meshes":[{"primitives":[{"mode":4,"attributes":{"POSITION":0,"NORMAL":1},"material":0}]}]}