{"asset":{"version":"2.0","generator":"THREE.GLTFExporter"},"scenes":[{"nodes":[0],"name":"AuxScene"}],"scene":0,"nodes":[{"mesh":0}],"bufferViews":[{"buffer":0,"byteOffset":0,"byteLength":217080,"target":34962,"byteStride":12},{"buffer":0,"byteOffset":217080,"byteLength":217080,"target":34962,"byteStride":12}],"buffers":[{"byteLength":434160,"uri":"data:application/octet-stream;base64,"}],"accessors":[{"bufferView":0,"componentType":5126,"count":18090,"max":[85.78439331054688,20.16473388671875,183.33084106445312],"min":[-193.41561889648438,-9.635265350341797,-95.86917114257812],"type":"VEC3"},{"bufferView":1,"componentType":5126,"count":18090,"max":[0.9959779977798462,1,0.9914309978485107],"min":[-0.9934831261634827,0.004029770381748676,-0.9947356581687927],"type":"VEC3"}],"materials":[{"pbrMetallicRoughness":{"baseColorFactor":[0.5019607843137255,0.5019607843137255,0.5019607843137255,1],"metallicFactor":0,"roughnessFactor":1}}],"meshes":[{"primitives":[{"mode":4,"attributes":{"POSITION":0,"NORMAL":1},"material":0}]}]}