{"asset":{"version":"2.0","generator":"THREE.GLTFExporter"},"scenes":[{"nodes":[0],"name":"AuxScene"}],"scene":0,"nodes":[{"mesh":0}],"bufferViews":[{"buffer":0,"byteOffset":0,"byteLength":3816,"target":34962,"byteStride":12},{"buffer":0,"byteOffset":3816,"byteLength":3816,"target":34962,"byteStride":12}],"buffers":[{"byteLength":7632,"uri":"data:application/octet-stream;base64,"}],"accessors":[{"bufferView":0,"componentType":5126,"count":318,"max":[21.190690994262695,7.742265224456787,15.51095962524414],"min":[-21.0493106842041,0.2422650009393692,-36.299041748046875],"type":"VEC3"},{"bufferView":1,"componentType":5126,"count":318,"max":[0,1,0],"min":[0,1,0],"type":"VEC3"}],"materials":[{"pbrMetallicRoughness":{"baseColorFactor":[0.5019607843137255,0.5019607843137255,0.5019607843137255,1],"metallicFactor":0,"roughnessFactor":1}}],"meshes":[{"primitives":[{"mode":4,"attributes":{"POSITION":0,"NORMAL":1},"material":0}]}]}